<svg width="256" height="256" viewBox="0 0 256 256" version="1.1" xmlns="http://www.w3.org/2000/svg" xmlns:xlink="http://www.w3.org/1999/xlink">
<title>Danny-Hope-logo</title>
<desc>Created using Figma</desc>
<g id="Canvas">
<g id="Danny-Hope-logo">
<g id="Vector">
<use xlink:href="#path0_fill" fill="#FFF8A3"/>
</g>
<g id="Danny Hope">
<use xlink:href="#path1_fill" transform="translate(31.8809 124.856)"/>
<use xlink:href="#path2_fill" transform="translate(31.8809 124.856)"/>
<use xlink:href="#path3_fill" transform="translate(31.8809 124.856)"/>
<use xlink:href="#path4_fill" transform="translate(31.8809 124.856)"/>
<use xlink:href="#path5_fill" transform="translate(31.8809 124.856)"/>
<use xlink:href="#path6_fill" transform="translate(31.8809 124.856)"/>
<use xlink:href="#path7_fill" transform="translate(31.8809 124.856)"/>
<use xlink:href="#path8_fill" transform="translate(31.8809 124.856)"/>
<use xlink:href="#path9_fill" transform="translate(31.8809 124.856)"/>
</g>
<g id="Curl">
<use xlink:href="#path10_fill" transform="matrix(-1 1.22465e-16 -1.22465e-16 -1 256 256)" fill="#000000" fill-opacity="0.1"/>
</g>
</g>
</g>
<defs>
<path id="path0_fill" d="M 0 256L 0 0L 255.944 0L 256 224L 223.951 256L 0 256Z"/>
<path id="path1_fill" d="M 8.51118 31.6534L 8.51118 7.17913L 14.5829 7.17913C 16.679 7.17913 18.4319 7.48733 19.8414 8.10372C 21.287 8.68385 22.4435 9.53592 23.3109 10.6599C 24.1783 11.7839 24.7927 13.1436 25.1541 14.739C 25.5516 16.2981 25.7504 18.0566 25.7504 20.0145C 25.7504 22.1538 25.4793 23.9667 24.9372 25.4533C 24.3951 26.9399 23.6723 28.1545 22.7688 29.0972C 21.8652 30.0037 20.8352 30.6563 19.6787 31.0552C 18.5222 31.454 17.3296 31.6534 16.1008 31.6534L 8.51118 31.6534ZM 0 0L 0 38.8326L 16.6971 38.8326C 19.6606 38.8326 22.2267 38.3431 24.3951 37.3641C 26.5997 36.3489 28.4248 34.9711 29.8705 33.2307C 31.3522 31.4903 32.4545 29.4236 33.1773 27.0305C 33.9002 24.6375 34.2616 22.0269 34.2616 19.1987C 34.2616 15.9718 33.8098 13.1617 32.9063 10.7687C 32.0389 8.37565 30.8101 6.38145 29.2199 4.78609C 27.6659 3.19072 25.8046 1.9942 23.6361 1.19652C 21.5038 0.39884 19.1908 0 16.6971 0L 0 0Z"/>
<path id="path2_fill" d="M 39.0436 19.3619C 39.152 17.549 39.6038 16.0443 40.3989 14.8477C 41.194 13.6512 42.2059 12.6904 43.4347 11.9652C 44.6635 11.2401 46.0369 10.7324 47.5548 10.4424C 49.1088 10.116 50.6629 9.95289 52.217 9.95289C 53.6265 9.95289 55.054 10.0617 56.4997 10.2792C 57.9453 10.4605 59.2644 10.8412 60.4571 11.4213C 61.6497 12.0015 62.6255 12.8173 63.3845 13.8688C 64.1435 14.884 64.5229 16.2437 64.5229 17.9478L 64.5229 32.578C 64.5229 33.8471 64.5952 35.0617 64.7398 36.222C 64.8844 37.3822 65.1373 38.2524 65.4987 38.8326L 57.6923 38.8326C 57.5477 38.3975 57.4212 37.9624 57.3128 37.5273C 57.2405 37.0559 57.1863 36.5846 57.1502 36.1132C 55.9214 37.3822 54.4758 38.2706 52.8133 38.7782C 51.1508 39.2858 49.4522 39.5396 47.7174 39.5396C 46.3802 39.5396 45.1333 39.3764 43.9768 39.0501C 42.8203 38.7238 41.8084 38.2162 40.941 37.5273C 40.0736 36.8384 39.3869 35.9682 38.881 34.9167C 38.4111 33.8652 38.1762 32.6143 38.1762 31.164C 38.1762 29.5686 38.4473 28.2633 38.9894 27.2481C 39.5676 26.1966 40.2905 25.3626 41.1578 24.7462C 42.0614 24.1299 43.0733 23.6766 44.1937 23.3866C 45.3502 23.0602 46.5067 22.8064 47.6632 22.6251C 48.8197 22.4438 49.9582 22.2988 51.0785 22.19C 52.1989 22.0813 53.1928 21.9181 54.0601 21.7006C 54.9275 21.483 55.6142 21.1748 56.1202 20.776C 56.6262 20.3409 56.8611 19.7245 56.8249 18.9268C 56.8249 18.0929 56.6804 17.4402 56.3912 16.9689C 56.1383 16.4612 55.7768 16.0805 55.307 15.8267C 54.8733 15.5367 54.3493 15.3554 53.7349 15.2828C 53.1566 15.1741 52.5242 15.1197 51.8375 15.1197C 50.3196 15.1197 49.1269 15.446 48.2595 16.0987C 47.3922 16.7513 46.8862 17.8391 46.7416 19.3619L 39.0436 19.3619ZM 56.8249 25.0726C 56.4997 25.3626 56.084 25.5983 55.5781 25.7796C 55.1082 25.9246 54.5842 26.0515 54.0059 26.1603C 53.4638 26.2691 52.8856 26.3597 52.2712 26.4323C 51.6568 26.5048 51.0424 26.5954 50.428 26.7042C 49.8497 26.813 49.2715 26.958 48.6932 27.1393C 48.1511 27.3206 47.6632 27.5744 47.2295 27.9007C 46.832 28.1908 46.5067 28.5715 46.2537 29.0428C 46.0007 29.5142 45.8742 30.1125 45.8742 30.8376C 45.8742 31.5265 46.0007 32.1067 46.2537 32.578C 46.5067 33.0494 46.85 33.4301 47.2837 33.7202C 47.7174 33.974 48.2234 34.1553 48.8016 34.264C 49.3799 34.3728 49.9762 34.4272 50.5906 34.4272C 52.1085 34.4272 53.2831 34.1734 54.1144 33.6658C 54.9456 33.1582 55.56 32.5599 55.9575 31.871C 56.3551 31.1458 56.59 30.4207 56.6623 29.6955C 56.7707 28.9703 56.8249 28.3902 56.8249 27.9551L 56.8249 25.0726Z"/>
<path id="path3_fill" d="M 70.498 10.7143L 70.498 38.8326L 78.1961 38.8326L 78.1961 24.0936C 78.1961 21.2292 78.6659 19.1806 79.6056 17.9478C 80.5452 16.6788 82.0631 16.0443 84.1593 16.0443C 86.0025 16.0443 87.2855 16.6244 88.0083 17.7847C 88.7311 18.9087 89.0925 20.6309 89.0925 22.9515L 89.0925 38.8326L 96.7906 38.8326L 96.7906 21.5374C 96.7906 19.797 96.6279 18.2198 96.3026 16.8057C 96.0135 15.3554 95.4895 14.1407 94.7305 13.1617C 93.9716 12.1465 92.9235 11.367 91.5863 10.8231C 90.2852 10.243 88.6046 9.95289 86.5446 9.95289C 84.9183 9.95289 83.3281 10.3336 81.774 11.095C 80.2199 11.8202 78.955 12.9986 77.9792 14.6302L 77.8166 14.6302L 77.8166 10.7143L 70.498 10.7143Z"/>
<path id="path4_fill" d="M 102.633 10.7143L 102.633 38.8326L 110.331 38.8326L 110.331 24.0936C 110.331 21.2292 110.801 19.1806 111.741 17.9478C 112.68 16.6788 114.198 16.0443 116.294 16.0443C 118.138 16.0443 119.421 16.6244 120.143 17.7847C 120.866 18.9087 121.228 20.6309 121.228 22.9515L 121.228 38.8326L 128.926 38.8326L 128.926 21.5374C 128.926 19.797 128.763 18.2198 128.438 16.8057C 128.149 15.3554 127.625 14.1407 126.866 13.1617C 126.107 12.1465 125.059 11.367 123.721 10.8231C 122.42 10.243 120.74 9.95289 118.68 9.95289C 117.053 9.95289 115.463 10.3336 113.909 11.095C 112.355 11.8202 111.09 12.9986 110.114 14.6302L 109.952 14.6302L 109.952 10.7143L 102.633 10.7143Z"/>
<path id="path5_fill" d="M 148.592 42.3134L 160.302 10.7143L 152.333 10.7143L 146.207 29.9674L 146.098 29.9674L 139.756 10.7143L 131.57 10.7143L 141.382 37.0922C 141.599 37.636 141.707 38.2162 141.707 38.8326C 141.707 39.6665 141.454 40.4279 140.948 41.1168C 140.478 41.8057 139.738 42.2046 138.726 42.3134C 137.967 42.3496 137.208 42.3315 136.449 42.259C 135.69 42.1865 134.949 42.1139 134.226 42.0414L 134.226 48.4047C 135.021 48.4773 135.798 48.5317 136.557 48.5679C 137.352 48.6404 138.147 48.6767 138.942 48.6767C 141.581 48.6767 143.641 48.1872 145.123 47.2082C 146.604 46.2293 147.761 44.5976 148.592 42.3134Z"/>
<path id="path6_fill" d="M 0 60.4602L 0 99.2927L 8.51118 99.2927L 8.51118 82.5414L 24.1783 82.5414L 24.1783 99.2927L 32.6894 99.2927L 32.6894 60.4602L 24.1783 60.4602L 24.1783 75.3623L 8.51118 75.3623L 8.51118 60.4602L 0 60.4602Z"/>
<path id="path7_fill" d="M 46.1995 85.2608C 46.1995 84.1368 46.3079 83.0309 46.5248 81.9432C 46.7416 80.8554 47.103 79.8946 47.609 79.0606C 48.1511 78.2267 48.8559 77.5559 49.7232 77.0483C 50.5906 76.5044 51.6749 76.2325 52.9759 76.2325C 54.277 76.2325 55.3612 76.5044 56.2286 77.0483C 57.1321 77.5559 57.8369 78.2267 58.3428 79.0606C 58.885 79.8946 59.2644 80.8554 59.4813 81.9432C 59.6981 83.0309 59.8066 84.1368 59.8066 85.2608C 59.8066 86.3848 59.6981 87.4907 59.4813 88.5784C 59.2644 89.6299 58.885 90.5908 58.3428 91.461C 57.8369 92.2949 57.1321 92.9657 56.2286 93.4733C 55.3612 93.9809 54.277 94.2347 52.9759 94.2347C 51.6749 94.2347 50.5906 93.9809 49.7232 93.4733C 48.8559 92.9657 48.1511 92.2949 47.609 91.461C 47.103 90.5908 46.7416 89.6299 46.5248 88.5784C 46.3079 87.4907 46.1995 86.3848 46.1995 85.2608ZM 38.5015 85.2608C 38.5015 87.5088 38.8448 89.5393 39.5315 91.3522C 40.2182 93.1651 41.194 94.7242 42.4589 96.0295C 43.7239 97.2985 45.2418 98.2775 47.0127 98.9664C 48.7836 99.6553 50.7713 99.9998 52.9759 99.9998C 55.1805 99.9998 57.1683 99.6553 58.9392 98.9664C 60.7462 98.2775 62.2822 97.2985 63.5471 96.0295C 64.8121 94.7242 65.7879 93.1651 66.4746 91.3522C 67.1612 89.5393 67.5046 87.5088 67.5046 85.2608C 67.5046 83.0128 67.1612 80.9823 66.4746 79.1694C 65.7879 77.3202 64.8121 75.7611 63.5471 74.4921C 62.2822 73.1868 60.7462 72.1897 58.9392 71.5008C 57.1683 70.7756 55.1805 70.413 52.9759 70.413C 50.7713 70.413 48.7836 70.7756 47.0127 71.5008C 45.2418 72.1897 43.7239 73.1868 42.4589 74.4921C 41.194 75.7611 40.2182 77.3202 39.5315 79.1694C 38.8448 80.9823 38.5015 83.0128 38.5015 85.2608Z"/>
<path id="path8_fill" d="M 86.659 94.2347C 85.4302 94.2347 84.3821 93.9809 83.5147 93.4733C 82.6473 92.9657 81.9426 92.313 81.4005 91.5153C 80.8945 90.6814 80.515 89.7206 80.262 88.6328C 80.0452 87.5451 79.9368 86.4392 79.9368 85.3152C 79.9368 84.1549 80.0452 83.0309 80.262 81.9432C 80.4789 80.8554 80.8403 79.8946 81.3463 79.0606C 81.8884 78.2267 82.575 77.5559 83.4063 77.0483C 84.2737 76.5044 85.3398 76.2325 86.6048 76.2325C 87.8335 76.2325 88.8636 76.5044 89.6948 77.0483C 90.5622 77.5559 91.2669 78.2448 91.809 79.115C 92.3512 79.949 92.7306 80.9098 92.9475 81.9975C 93.2005 83.0853 93.327 84.1912 93.327 85.3152C 93.327 86.4392 93.2185 87.5451 93.0017 88.6328C 92.7848 89.7206 92.4054 90.6814 91.8633 91.5153C 91.3573 92.313 90.6706 92.9657 89.8032 93.4733C 88.972 93.9809 87.9239 94.2347 86.659 94.2347ZM 72.5098 71.1745L 72.5098 109.137L 80.2078 109.137L 80.2078 95.8119L 80.3162 95.8119C 81.2559 97.1897 82.4485 98.2412 83.8942 98.9664C 85.376 99.6553 86.9842 99.9998 88.719 99.9998C 90.779 99.9998 92.568 99.6009 94.0859 98.8032C 95.64 98.0056 96.923 96.9359 97.9349 95.5944C 98.983 94.2528 99.76 92.7119 100.266 90.9715C 100.772 89.2311 101.025 87.4182 101.025 85.5327C 101.025 83.5385 100.772 81.635 100.266 79.8221C 99.76 77.9729 98.983 76.3594 97.9349 74.9816C 96.8868 73.6038 95.5677 72.4979 93.9775 71.6639C 92.3873 70.83 90.4899 70.413 88.2853 70.413C 86.5505 70.413 84.9603 70.7575 83.5147 71.4464C 82.0691 72.1353 80.8764 73.2412 79.9368 74.764L 79.8283 74.764L 79.8283 71.1745L 72.5098 71.1745Z"/>
<path id="path9_fill" d="M 124.516 82.2151L 111.993 82.2151C 112.03 81.6712 112.138 81.0548 112.319 80.3659C 112.536 79.677 112.879 79.0244 113.349 78.408C 113.855 77.7916 114.505 77.284 115.3 76.8851C 116.132 76.45 117.162 76.2325 118.39 76.2325C 120.27 76.2325 121.661 76.7401 122.565 77.7553C 123.504 78.7706 124.155 80.2572 124.516 82.2151ZM 111.993 87.11L 132.214 87.11C 132.359 84.9345 132.178 82.8496 131.672 80.8554C 131.166 78.8612 130.335 77.0846 129.178 75.5254C 128.058 73.9663 126.612 72.7336 124.842 71.8271C 123.071 70.8844 120.993 70.413 118.607 70.413C 116.475 70.413 114.523 70.7938 112.752 71.5552C 111.018 72.3166 109.518 73.3681 108.253 74.7096C 106.988 76.0149 106.012 77.574 105.325 79.387C 104.639 81.1999 104.295 83.1578 104.295 85.2608C 104.295 87.4363 104.621 89.4305 105.271 91.2434C 105.958 93.0563 106.916 94.6154 108.144 95.9207C 109.373 97.226 110.873 98.2412 112.644 98.9664C 114.415 99.6553 116.403 99.9998 118.607 99.9998C 121.788 99.9998 124.498 99.2746 126.739 97.8243C 128.98 96.3739 130.642 93.9628 131.726 90.5907L 124.95 90.5907C 124.697 91.4609 124.01 92.2949 122.89 93.0926C 121.77 93.854 120.432 94.2347 118.878 94.2347C 116.71 94.2347 115.047 93.6727 113.891 92.5487C 112.734 91.4247 112.102 89.6118 111.993 87.11Z"/>
<path id="path10_fill" d="M 0 32L 32 0L 32 32L 0 32Z"/>
</defs>
</svg>
