<svg width="512" height="512" viewBox="0 0 512 512" version="1.1" xmlns="http://www.w3.org/2000/svg" xmlns:xlink="http://www.w3.org/1999/xlink">
<title>Danny-Hope-logo</title>
<desc>Created using Figma</desc>
<g id="Canvas" transform="matrix(2 0 0 2 30 930)">
<g id="Danny-Hope-logo">
<path d="M -15 -465L 241 -465L 241 -209L -15 -209L -15 -465Z" fill="#FFFFFF"/>
<g id="Note">
<use xlink:href="#path0_fill" transform="matrix(1 0 0 -1 -15 -209)" fill="#FFF8A3"/>
</g>
<g id="Curl-shade-tick">
<use xlink:href="#path1_fill" transform="translate(192.295 -418)" fill="#000000" fill-opacity="0.25"/>
</g>
<g id="DANNY HOPE">
<use xlink:href="#path2_fill" transform="translate(23.105 -377.13)" fill="#000000" fill-opacity="0.79"/>
<use xlink:href="#path3_fill" transform="translate(23.105 -377.13)" fill="#000000" fill-opacity="0.79"/>
<use xlink:href="#path4_fill" transform="translate(23.105 -377.13)" fill="#000000" fill-opacity="0.79"/>
<use xlink:href="#path5_fill" transform="translate(23.105 -377.13)" fill="#000000" fill-opacity="0.79"/>
<use xlink:href="#path6_fill" transform="translate(23.105 -377.13)" fill="#000000" fill-opacity="0.79"/>
<use xlink:href="#path7_fill" transform="translate(23.105 -377.13)" fill="#000000" fill-opacity="0.79"/>
<use xlink:href="#path8_fill" transform="translate(23.105 -377.13)" fill="#000000" fill-opacity="0.79"/>
<use xlink:href="#path9_fill" transform="translate(23.105 -377.13)" fill="#000000" fill-opacity="0.79"/>
<use xlink:href="#path10_fill" transform="translate(23.105 -377.13)" fill="#000000" fill-opacity="0.79"/>
</g>
</g>
</g>
<defs>
<path id="path0_fill" d="M 0 256L 0 0L 255.944 0L 256 209L 187 256L 0 256Z"/>
<path id="path1_fill" d="M 0 3.93646L 3.69141 26L 48.7053 0L 5.12854 16.8081L 0 3.93646Z"/>
<path id="path2_fill" d="M 7.065 26.19L 7.065 5.93999L 12.105 5.93999C 13.845 5.93999 15.3 6.19499 16.47 6.70499C 17.67 7.18499 18.63 7.89 19.35 8.82C 20.07 9.75 20.58 10.875 20.88 12.195C 21.21 13.485 21.375 14.94 21.375 16.56C 21.375 18.33 21.15 19.83 20.7 21.06C 20.25 22.29 19.65 23.295 18.9 24.075C 18.15 24.825 17.295 25.365 16.335 25.695C 15.375 26.025 14.385 26.19 13.365 26.19L 7.065 26.19ZM 0 0L 0 32.13L 13.86 32.13C 16.32 32.13 18.45 31.725 20.25 30.915C 22.08 30.075 23.595 28.935 24.795 27.495C 26.025 26.055 26.94 24.345 27.54 22.365C 28.14 20.385 28.44 18.225 28.44 15.885C 28.44 13.215 28.065 10.89 27.315 8.91C 26.595 6.93 25.575 5.28 24.255 3.96C 22.965 2.64 21.42 1.65 19.62 0.989998C 17.85 0.329998 15.93 0 13.86 0L 0 0Z"/>
<path id="path3_fill" d="M 41.4545 19.71L 45.6395 7.92L 45.7295 7.92L 49.7795 19.71L 41.4545 19.71ZM 42.1295 0L 29.9795 32.13L 37.0895 32.13L 39.6095 24.975L 51.6245 24.975L 54.0545 32.13L 61.3895 32.13L 49.3745 0L 42.1295 0Z"/>
<path id="path4_fill" d="M 64.1602 0L 64.1602 32.13L 70.7752 32.13L 70.7752 10.62L 70.8652 10.62L 84.2302 32.13L 91.2952 32.13L 91.2952 0L 84.6802 0L 84.6802 21.555L 84.5902 21.555L 71.1802 0L 64.1602 0Z"/>
<path id="path5_fill" d="M 97.5146 0L 97.5146 32.13L 104.13 32.13L 104.13 10.62L 104.22 10.62L 117.585 32.13L 124.65 32.13L 124.65 0L 118.035 0L 118.035 21.555L 117.945 21.555L 104.535 0L 97.5146 0Z"/>
<path id="path6_fill" d="M 139.194 19.62L 139.194 32.13L 146.259 32.13L 146.259 19.8L 158.184 0L 150.309 0L 142.839 12.69L 135.324 0L 127.404 0L 139.194 19.62Z"/>
<path id="path7_fill" d="M 0 49L 0 81.13L 7.065 81.13L 7.065 67.27L 20.07 67.27L 20.07 81.13L 27.135 81.13L 27.135 49L 20.07 49L 20.07 61.33L 7.065 61.33L 7.065 49L 0 49Z"/>
<path id="path8_fill" d="M 39.0245 65.2C 39.0245 63.79 39.1745 62.425 39.4745 61.105C 39.8045 59.785 40.3145 58.615 41.0045 57.595C 41.6945 56.545 42.5945 55.72 43.7045 55.12C 44.8145 54.49 46.1645 54.175 47.7545 54.175C 49.3445 54.175 50.6945 54.49 51.8045 55.12C 52.9145 55.72 53.8145 56.545 54.5045 57.595C 55.1945 58.615 55.6895 59.785 55.9895 61.105C 56.3195 62.425 56.4845 63.79 56.4845 65.2C 56.4845 66.55 56.3195 67.87 55.9895 69.16C 55.6895 70.42 55.1945 71.56 54.5045 72.58C 53.8145 73.6 52.9145 74.425 51.8045 75.055C 50.6945 75.655 49.3445 75.955 47.7545 75.955C 46.1645 75.955 44.8145 75.655 43.7045 75.055C 42.5945 74.425 41.6945 73.6 41.0045 72.58C 40.3145 71.56 39.8045 70.42 39.4745 69.16C 39.1745 67.87 39.0245 66.55 39.0245 65.2ZM 31.9595 65.2C 31.9595 67.54 32.3195 69.73 33.0395 71.77C 33.7595 73.78 34.7945 75.535 36.1445 77.035C 37.4945 78.535 39.1445 79.72 41.0945 80.59C 43.0745 81.43 45.2945 81.85 47.7545 81.85C 50.2445 81.85 52.4645 81.43 54.4145 80.59C 56.3645 79.72 58.0145 78.535 59.3645 77.035C 60.7145 75.535 61.7495 73.78 62.4695 71.77C 63.1895 69.73 63.5495 67.54 63.5495 65.2C 63.5495 62.8 63.1895 60.58 62.4695 58.54C 61.7495 56.47 60.7145 54.67 59.3645 53.14C 58.0145 51.61 56.3645 50.41 54.4145 49.54C 52.4645 48.67 50.2445 48.235 47.7545 48.235C 45.2945 48.235 43.0745 48.67 41.0945 49.54C 39.1445 50.41 37.4945 51.61 36.1445 53.14C 34.7945 54.67 33.7595 56.47 33.0395 58.54C 32.3195 60.58 31.9595 62.8 31.9595 65.2Z"/>
<path id="path9_fill" d="M 75.4439 64.12L 75.4439 54.49L 80.9339 54.49C 81.7439 54.49 82.5239 54.55 83.2739 54.67C 84.0239 54.79 84.6839 55.03 85.2539 55.39C 85.8239 55.72 86.2739 56.2 86.6039 56.83C 86.9639 57.46 87.1439 58.285 87.1439 59.305C 87.1439 60.325 86.9639 61.15 86.6039 61.78C 86.2739 62.41 85.8239 62.905 85.2539 63.265C 84.6839 63.595 84.0239 63.82 83.2739 63.94C 82.5239 64.06 81.7439 64.12 80.9339 64.12L 75.4439 64.12ZM 68.3789 49L 68.3789 81.13L 75.4439 81.13L 75.4439 69.61L 82.8689 69.61C 84.8789 69.61 86.5889 69.325 87.9989 68.755C 89.4089 68.155 90.5489 67.375 91.4189 66.415C 92.3189 65.455 92.9639 64.36 93.3539 63.13C 93.7739 61.87 93.9839 60.595 93.9839 59.305C 93.9839 57.985 93.7739 56.71 93.3539 55.48C 92.9639 54.25 92.3189 53.155 91.4189 52.195C 90.5489 51.235 89.4089 50.47 87.9989 49.9C 86.5889 49.3 84.8789 49 82.8689 49L 68.3789 49Z"/>
<path id="path10_fill" d="M 98.3936 49L 98.3936 81.13L 122.784 81.13L 122.784 75.19L 105.459 75.19L 105.459 67.315L 121.029 67.315L 121.029 61.825L 105.459 61.825L 105.459 54.94L 122.424 54.94L 122.424 49L 98.3936 49Z"/>
</defs>
</svg>
