<svg width="256" height="256" viewBox="0 0 256 256" version="1.1" xmlns="http://www.w3.org/2000/svg" xmlns:xlink="http://www.w3.org/1999/xlink">
<title>Danny Hope logo</title>
<desc>Created using Figma</desc>
<g id="Canvas" transform="translate(252 -1288)">
<g id="Danny Hope logo">
<g id="Note">
<use xlink:href="#path0_fill" transform="translate(-252 1288)" fill="#FFF8A3"/>
</g>
<g id="Initials">
<use xlink:href="#path1_fill" transform="translate(-204.349 1362)" fill="#000000" fill-opacity="0.86"/>
<use xlink:href="#path2_fill" transform="translate(-204.349 1362)" fill="#000000" fill-opacity="0.86"/>
</g>
<g id="Curl">
<use xlink:href="#path3_fill" transform="matrix(-1 1.22465e-16 -1.22465e-16 -1 4 1544)" fill="#000000" fill-opacity="0.1"/>
</g>
</g>
</g>
<defs>
<path id="path0_fill" d="M 0 256L 208 256L 256 208L 256 0L 0 0L 0 256Z"/>
<path id="path1_fill" d="M 0 0L 0 107.93L 40.8139 107.93C 48.9767 107.93 55.3255 106.469 59.8604 103.546C 64.3952 100.523 67.7712 96.5425 69.9883 91.6045C 72.3061 86.5657 73.7169 80.8216 74.2208 74.372C 74.7247 67.8216 74.9766 61.0193 74.9766 53.965C 74.9766 46.9108 74.7247 40.1588 74.2208 33.7092C 73.7169 27.1589 72.3061 21.4147 69.9883 16.4767C 67.7712 11.438 64.3952 7.45735 59.8604 4.53487C 55.3255 1.51162 48.9767 0 40.8139 0L 0 0ZM 28.1162 87.6743L 28.1162 20.2558L 33.7092 20.2558C 36.4302 20.2558 38.5968 20.6589 40.2092 21.4651C 41.8216 22.1705 43.0309 23.7325 43.8371 26.1511C 44.7441 28.5697 45.2984 31.9961 45.4999 36.4302C 45.8022 40.8643 45.9534 46.7092 45.9534 53.965C 45.9534 61.2208 45.8022 67.0658 45.4999 71.4999C 45.2984 75.934 44.7441 79.3603 43.8371 81.7789C 43.0309 84.1975 41.8216 85.8099 40.2092 86.6161C 38.5968 87.3216 36.4302 87.6743 33.7092 87.6743L 28.1162 87.6743Z"/>
<path id="path2_fill" d="M 86.8004 0L 86.8004 107.93L 114.917 107.93L 114.917 63.4883L 132.149 63.4883L 132.149 107.93L 160.265 107.93L 160.265 0L 132.149 0L 132.149 39.6046L 114.917 39.6046L 114.917 0L 86.8004 0Z"/>
<path id="path3_fill" d="M 0 48L 48 0L 48 48L 0 48Z"/>
</defs>
</svg>
